<mxfile host="app.diagrams.net" agent="Mozilla/5.0 (X11; Linux x86_64; rv:128.0) Gecko/20100101 Firefox/128.0" version="24.7.5">
  <diagram name="Page-1" id="AICNg39ieoMic3WwZW0z">
    <mxGraphModel dx="1428" dy="815" grid="1" gridSize="10" guides="1" tooltips="1" connect="1" arrows="1" fold="1" page="1" pageScale="1" pageWidth="850" pageHeight="1100" math="0" shadow="0">
      <root>
        <mxCell id="0" />
        <mxCell id="1" parent="0" />
        <mxCell id="wJsS2iwVWLO0ZYs80pV2-2" value="&lt;font size=&quot;3&quot;&gt;API Server&lt;/font&gt;" style="whiteSpace=wrap;html=1;aspect=fixed;" vertex="1" parent="1">
          <mxGeometry x="350" y="270" width="220" height="220" as="geometry" />
        </mxCell>
        <mxCell id="wJsS2iwVWLO0ZYs80pV2-3" value="" style="endArrow=none;html=1;rounded=0;" edge="1" parent="1">
          <mxGeometry width="50" height="50" relative="1" as="geometry">
            <mxPoint x="110" y="510" as="sourcePoint" />
            <mxPoint x="110" y="240" as="targetPoint" />
          </mxGeometry>
        </mxCell>
        <mxCell id="wJsS2iwVWLO0ZYs80pV2-4" value="" style="endArrow=none;html=1;rounded=0;entryX=-0.005;entryY=0.095;entryDx=0;entryDy=0;entryPerimeter=0;" edge="1" parent="1" source="wJsS2iwVWLO0ZYs80pV2-6" target="wJsS2iwVWLO0ZYs80pV2-2">
          <mxGeometry width="50" height="50" relative="1" as="geometry">
            <mxPoint x="140" y="290" as="sourcePoint" />
            <mxPoint x="220" y="270" as="targetPoint" />
          </mxGeometry>
        </mxCell>
        <mxCell id="wJsS2iwVWLO0ZYs80pV2-5" value="" style="endArrow=none;html=1;rounded=0;" edge="1" parent="1" source="wJsS2iwVWLO0ZYs80pV2-8">
          <mxGeometry width="50" height="50" relative="1" as="geometry">
            <mxPoint x="140" y="340" as="sourcePoint" />
            <mxPoint x="350" y="340" as="targetPoint" />
          </mxGeometry>
        </mxCell>
        <mxCell id="wJsS2iwVWLO0ZYs80pV2-10" value="" style="endArrow=none;html=1;rounded=0;entryX=0.005;entryY=0.595;entryDx=0;entryDy=0;entryPerimeter=0;" edge="1" parent="1" source="wJsS2iwVWLO0ZYs80pV2-11" target="wJsS2iwVWLO0ZYs80pV2-2">
          <mxGeometry width="50" height="50" relative="1" as="geometry">
            <mxPoint x="140" y="380" as="sourcePoint" />
            <mxPoint x="340" y="380" as="targetPoint" />
          </mxGeometry>
        </mxCell>
        <mxCell id="wJsS2iwVWLO0ZYs80pV2-12" value="" style="endArrow=none;html=1;rounded=0;entryX=0.005;entryY=0.595;entryDx=0;entryDy=0;entryPerimeter=0;" edge="1" parent="1" target="wJsS2iwVWLO0ZYs80pV2-11">
          <mxGeometry width="50" height="50" relative="1" as="geometry">
            <mxPoint x="110" y="389" as="sourcePoint" />
            <mxPoint x="351" y="383" as="targetPoint" />
          </mxGeometry>
        </mxCell>
        <mxCell id="wJsS2iwVWLO0ZYs80pV2-11" value="&lt;div&gt;&lt;font style=&quot;font-size: 18px;&quot;&gt;Post /login&lt;/font&gt;&lt;/div&gt;" style="text;html=1;align=center;verticalAlign=middle;resizable=0;points=[];autosize=1;strokeColor=none;fillColor=none;" vertex="1" parent="1">
          <mxGeometry x="175" y="365" width="110" height="40" as="geometry" />
        </mxCell>
        <mxCell id="wJsS2iwVWLO0ZYs80pV2-13" value="" style="endArrow=none;html=1;rounded=0;" edge="1" parent="1" target="wJsS2iwVWLO0ZYs80pV2-8">
          <mxGeometry width="50" height="50" relative="1" as="geometry">
            <mxPoint x="110" y="335" as="sourcePoint" />
            <mxPoint x="350" y="340" as="targetPoint" />
          </mxGeometry>
        </mxCell>
        <mxCell id="wJsS2iwVWLO0ZYs80pV2-8" value="&lt;font size=&quot;3&quot;&gt;Post /register&lt;/font&gt;" style="text;html=1;align=center;verticalAlign=middle;resizable=0;points=[];autosize=1;strokeColor=none;fillColor=none;" vertex="1" parent="1">
          <mxGeometry x="175" y="320" width="120" height="30" as="geometry" />
        </mxCell>
        <mxCell id="wJsS2iwVWLO0ZYs80pV2-14" value="" style="endArrow=none;html=1;rounded=0;entryX=0;entryY=0.55;entryDx=0;entryDy=0;entryPerimeter=0;" edge="1" parent="1" target="wJsS2iwVWLO0ZYs80pV2-6">
          <mxGeometry width="50" height="50" relative="1" as="geometry">
            <mxPoint x="110" y="290" as="sourcePoint" />
            <mxPoint x="349" y="288" as="targetPoint" />
          </mxGeometry>
        </mxCell>
        <mxCell id="wJsS2iwVWLO0ZYs80pV2-6" value="&lt;font style=&quot;font-size: 18px;&quot;&gt;Get /user/{id}&lt;/font&gt;" style="text;html=1;align=center;verticalAlign=middle;resizable=0;points=[];autosize=1;strokeColor=none;fillColor=none;" vertex="1" parent="1">
          <mxGeometry x="165" y="270" width="140" height="40" as="geometry" />
        </mxCell>
        <mxCell id="wJsS2iwVWLO0ZYs80pV2-15" value="" style="endArrow=none;html=1;rounded=0;entryX=0;entryY=0.75;entryDx=0;entryDy=0;" edge="1" parent="1" target="wJsS2iwVWLO0ZYs80pV2-2">
          <mxGeometry width="50" height="50" relative="1" as="geometry">
            <mxPoint x="110" y="420" as="sourcePoint" />
            <mxPoint x="450" y="400" as="targetPoint" />
          </mxGeometry>
        </mxCell>
        <mxCell id="wJsS2iwVWLO0ZYs80pV2-16" value="&lt;font style=&quot;font-size: 18px;&quot;&gt;Get /products&lt;/font&gt;" style="edgeLabel;html=1;align=center;verticalAlign=middle;resizable=0;points=[];" vertex="1" connectable="0" parent="wJsS2iwVWLO0ZYs80pV2-15">
          <mxGeometry x="-0.2487" y="-4" relative="1" as="geometry">
            <mxPoint x="31" y="-6" as="offset" />
          </mxGeometry>
        </mxCell>
        <mxCell id="wJsS2iwVWLO0ZYs80pV2-18" value="" style="endArrow=none;html=1;rounded=0;" edge="1" parent="1" source="wJsS2iwVWLO0ZYs80pV2-19">
          <mxGeometry width="50" height="50" relative="1" as="geometry">
            <mxPoint x="110" y="470" as="sourcePoint" />
            <mxPoint x="345" y="470" as="targetPoint" />
          </mxGeometry>
        </mxCell>
        <mxCell id="wJsS2iwVWLO0ZYs80pV2-20" value="" style="endArrow=none;html=1;rounded=0;" edge="1" parent="1" target="wJsS2iwVWLO0ZYs80pV2-19">
          <mxGeometry width="50" height="50" relative="1" as="geometry">
            <mxPoint x="110" y="470" as="sourcePoint" />
            <mxPoint x="345" y="470" as="targetPoint" />
          </mxGeometry>
        </mxCell>
        <mxCell id="wJsS2iwVWLO0ZYs80pV2-19" value="&lt;font size=&quot;3&quot;&gt;Post /cart/checkout&lt;/font&gt;" style="text;html=1;align=center;verticalAlign=middle;resizable=0;points=[];autosize=1;strokeColor=none;fillColor=none;" vertex="1" parent="1">
          <mxGeometry x="140" y="450" width="170" height="30" as="geometry" />
        </mxCell>
        <mxCell id="wJsS2iwVWLO0ZYs80pV2-21" value="&lt;font size=&quot;3&quot;&gt;MySQL&lt;/font&gt;" style="shape=cylinder3;whiteSpace=wrap;html=1;boundedLbl=1;backgroundOutline=1;size=15;" vertex="1" parent="1">
          <mxGeometry x="690" y="320" width="130" height="130" as="geometry" />
        </mxCell>
        <mxCell id="wJsS2iwVWLO0ZYs80pV2-22" value="" style="image;aspect=fixed;perimeter=ellipsePerimeter;html=1;align=center;shadow=0;dashed=0;spacingTop=3;image=img/lib/active_directory/key.svg;" vertex="1" parent="1">
          <mxGeometry x="60" y="270" width="40.54" height="30" as="geometry" />
        </mxCell>
        <mxCell id="wJsS2iwVWLO0ZYs80pV2-23" value="" style="image;aspect=fixed;perimeter=ellipsePerimeter;html=1;align=center;shadow=0;dashed=0;spacingTop=3;image=img/lib/active_directory/key.svg;" vertex="1" parent="1">
          <mxGeometry x="64.72999999999999" y="405" width="40.54" height="30" as="geometry" />
        </mxCell>
        <mxCell id="wJsS2iwVWLO0ZYs80pV2-24" value="" style="image;aspect=fixed;perimeter=ellipsePerimeter;html=1;align=center;shadow=0;dashed=0;spacingTop=3;image=img/lib/active_directory/key.svg;" vertex="1" parent="1">
          <mxGeometry x="60" y="446.5" width="50" height="37" as="geometry" />
        </mxCell>
        <mxCell id="wJsS2iwVWLO0ZYs80pV2-27" value="" style="endArrow=classic;html=1;rounded=0;" edge="1" parent="1">
          <mxGeometry width="50" height="50" relative="1" as="geometry">
            <mxPoint x="580" y="380" as="sourcePoint" />
            <mxPoint x="680" y="380" as="targetPoint" />
          </mxGeometry>
        </mxCell>
        <mxCell id="wJsS2iwVWLO0ZYs80pV2-28" value="" style="endArrow=classic;html=1;rounded=0;" edge="1" parent="1">
          <mxGeometry width="50" height="50" relative="1" as="geometry">
            <mxPoint x="680" y="420" as="sourcePoint" />
            <mxPoint x="580" y="420" as="targetPoint" />
          </mxGeometry>
        </mxCell>
      </root>
    </mxGraphModel>
  </diagram>
</mxfile>
